<?xml version="1.0" standalone="no"?>
<!DOCTYPE svg PUBLIC "-//W3C//DTD SVG 20010904//EN"
 "http://www.w3.org/TR/2001/REC-SVG-20010904/DTD/svg10.dtd">
<svg version="1.0" xmlns="http://www.w3.org/2000/svg"
 width="192.000000pt" height="192.000000pt" viewBox="0 0 192.000000 192.000000"
 preserveAspectRatio="xMidYMid meet">
<metadata>
Created by potrace 1.14, written by Peter Selinger 2001-2017
</metadata>
<g transform="translate(0.000000,192.000000) scale(0.100000,-0.100000)"
fill="#000000" stroke="none">
<path d="M0 1431 l0 -119 228 -4 c253 -4 293 -13 384 -82 137 -105 154 -381
30 -509 -71 -74 -163 -107 -308 -111 l-94 -3 -2 171 -3 171 -115 0 -115 0 0
-290 0 -290 200 -1 c229 0 334 15 440 65 149 69 244 175 289 321 10 30 20 62
23 70 3 8 12 -11 19 -44 41 -173 184 -320 370 -380 28 -9 62 -19 75 -23 13 -3
131 -8 262 -10 l237 -5 0 344 0 343 -185 0 -185 0 0 -121 0 -120 63 0 62 1 3
-104 3 -104 -108 6 c-253 12 -371 120 -377 347 -5 146 64 260 188 315 80 35
108 39 326 39 l205 1 0 120 0 120 -225 -1 c-253 -1 -300 -9 -430 -71 -137 -66
-263 -222 -285 -354 -8 -47 -20 -43 -30 8 -13 74 -73 179 -138 245 -78 79
-167 127 -308 165 -13 4 -131 8 -261 10 l-238 4 0 -120z"/>
</g>
</svg>
